HIERARCHY
ROOT Hips
{
  OFFSET 40.9192 92.6879 18.85
  CHANNELS 6 Xposition Yposition Zposition Zrotation Xrotation Yrotation
  JOINT LeftUpLeg
  {
    OFFSET 8.64259 1.95398 -2.38835
    CHANNELS 3 Zrotation Xrotation Yrotation
    JOINT LeftLeg
    {
      OFFSET 43.7702 0 0
      CHANNELS 3 Zrotation Xrotation Yrotation
      JOINT LeftFoot
      {
        OFFSET 40.6238 0 0
        CHANNELS 3 Zrotation Xrotation Yrotation
        JOINT LeftToeBase
        {
          OFFSET 12.7242 0 0
          CHANNELS 3 Zrotation Xrotation Yrotation
          End Site
          {
            OFFSET 0 0 0
          }
        }
      }
    }
  }
  JOINT RightUpLeg
  {
    OFFSET -8.2249 1.95398 -2.59336
    CHANNELS 3 Zrotation Xrotation Yrotation
    JOINT RightLeg
    {
      OFFSET 43.5653 0 0
      CHANNELS 3 Zrotation Xrotation Yrotation
      JOINT RightFoot
      {
        OFFSET 40.6238 0 0
        CHANNELS 3 Zrotation Xrotation Yrotation
        JOINT RightToeBase
        {
          OFFSET 12.7242 0 0
          CHANNELS 3 Zrotation Xrotation Yrotation
          End Site
          {
            OFFSET 0 0 0
          }
        }
      }
    }
  }
  JOINT Spine
  {
    OFFSET 0.165834 0.87714 6.61349
    CHANNELS 3 Zrotation Xrotation Yrotation
    JOINT Spine1
    {
      OFFSET 7.38963 1.71661e-005 0
      CHANNELS 3 Zrotation Xrotation Yrotation
      JOINT Spine2
      {
        OFFSET 11.9445 1.14441e-005 0
        CHANNELS 3 Zrotation Xrotation Yrotation
        JOINT Spine3
        {
          OFFSET 14.7254 4.19617e-005 0
          CHANNELS 3 Zrotation Xrotation Yrotation
          JOINT Spine4
          {
            OFFSET 10.9679 0 0
            CHANNELS 3 Zrotation Xrotation Yrotation
            JOINT RightShoulder
            {
              OFFSET 2.46616 -1.6653 3.69651
              CHANNELS 3 Zrotation Xrotation Yrotation
              JOINT RightArm
              {
                OFFSET 13.0012 0 0
                CHANNELS 3 Zrotation Xrotation Yrotation
                JOINT RightForeArm
                {
                  OFFSET 28.7848 1.52588e-005 0
                  CHANNELS 3 Zrotation Xrotation Yrotation
                  JOINT RightHand
                  {
                    OFFSET 26.5688 1.52588e-005 0
                    CHANNELS 3 Zrotation Xrotation Yrotation
                    End Site
                    {
                      OFFSET 0 0 0
                    }
                  }
                }
              }
            }
            JOINT LeftShoulder
            {
              OFFSET 2.38034 -1.29275 -3.7523
              CHANNELS 3 Zrotation Xrotation Yrotation
              JOINT LeftArm
              {
                OFFSET 16.3182 6.10351e-005 0
                CHANNELS 3 Zrotation Xrotation Yrotation
                JOINT LeftForeArm
                {
                  OFFSET 27.0901 0 0
                  CHANNELS 3 Zrotation Xrotation Yrotation
                  JOINT LeftHand
                  {
                    OFFSET 24.5451 1.52588e-005 0
                    CHANNELS 3 Zrotation Xrotation Yrotation
                    End Site
                    {
                      OFFSET 0 0 0
                    }
                  }
                }
              }
            }
            JOINT Neck
            {
              OFFSET 5.0226 -0.0266342 0
              CHANNELS 3 Zrotation Xrotation Yrotation
              JOINT Head
              {
                OFFSET 6.69363 2.86102e-005 0
                CHANNELS 3 Zrotation Xrotation Yrotation
                End Site
                {
                  OFFSET 0 0 0
                }
              }
            }
          }
        }
      }
    }
  }
}
MOTION
Frames:	12
Frame Time:	0.0416667
24.6776 80.6674 -269.751 68.4647 -21.4966 86.5337 170.685 49.5061 93.2717 -93.7114 23.025 42.4675 140.785 36.5453 -54.9649 14.9855 -14.9037 11.7589 -154.986 24.6129 144.889 30.5603 24.533 -63.997 -5.52395 11.9738 24.8241 85.5858 -16.7325 -41.852 -7.46454 6.58737 -93.0453 13.5199 -16.2787 -4.00865 1.95011 -16.4388 -3.2696 -21.2196 -14.3109 -8.8005 -1.20695 -14.3109 -8.80051 94.8105 -47.5519 -93.7761 34.8414 -12.8902 41.8618 -34.0489 39.0406 -125.617 -3.39064 2.53985 -70.0931 -93.0837 -44.258 72.5277 -34.916 17.6739 19.9185 16.064 -3.41166 -89.6439 36.0722 2.75998 3.79296 2.64512 6.49147 -1.64509 15.708 7.70786 6.09628 
23.9766 83.5015 -264.37 66.9649 -22.5008 85.9185 158.533 39.2524 110.236 -95.7287 42.9082 43.0628 120.272 36.7585 -23.4859 17.5851 -10.2685 4.89636 -168.456 31.2472 130.634 -17.8163 51.8598 -16.1804 23.5094 16.568 19.8847 89.3422 -10.4322 -26.9647 -6.97276 6.47485 -93.1854 13.7195 -15.3713 -4.36769 2.13684 -15.5481 -3.67167 -20.9337 -13.3411 -8.85033 -0.921045 -13.3411 -8.85033 93.9637 -46.1312 -95.3703 35.9507 -9.4904 38.38 -28.8649 33.4629 -128.085 -0.513239 0.467465 -68.1905 -93.7065 -46.3212 72.1674 -34.6744 16.9154 21.1519 18.1201 1.06672 -81.9776 37.024 3.36516 5.26043 14.1768 3.66545 -0.0336859 2.13417 3.94944 5.84327 
22.9062 85.7198 -260.847 65.3765 -27.4937 84.9935 156.398 37.5071 114.591 -88.3434 40.2241 31.5777 86.9801 20.0572 -0.35638 41.3583 8.59288 -13.0362 -165.595 18.5158 127.974 -3.20319 57.4411 -5.87065 29.911 10.2566 12.117 83.2935 -2.83822 -13.0867 -6.22786 6.42728 -93.1002 13.8281 -13.8539 -4.3724 2.22722 -14.0325 -3.74759 -20.7212 -11.8958 -8.37737 -0.708606 -11.8957 -8.37738 93.5581 -44.0778 -96.406 39.5822 -7.54354 38.5718 -19.3407 23.7967 -132.748 8.59161 -4.46679 -54.8811 -92.867 -47.384 73.7611 -35.9419 16.6682 26.5612 15.4234 0.855544 -79.5937 37.1619 3.2991 5.02501 14.5243 3.08353 0.883556 1.61202 3.02512 3.99823 
21.3804 89.3969 -257.931 71.5449 -35.0508 88.6369 161.62 41.7478 105.732 -85.5347 39.7936 24.2101 71.1789 8.98188 10.0196 43.527 11.7377 2.83976 -161.938 6.90738 129.264 -0.301316 59.0478 0.751014 38.4715 7.62581 7.01511 73.5983 1.27798 -3.25692 -5.43871 7.04771 -92.5321 12.627 -12.0093 -3.65794 1.00861 -12.1584 -3.11877 -21.8403 -10.3521 -7.12711 -1.82766 -10.3521 -7.1271 94.0309 -42.5183 -95.908 42.3982 -8.48765 34.2495 -12.8073 14.1694 -128.575 45.6847 -1.85764 -10.2607 -90.8601 -46.1318 76.5238 -39.477 17.6065 32.6914 13.6399 -0.0477564 -80.7358 37.838 3.15405 4.47476 12.9279 1.64623 1.07971 2.82871 1.4957 1.93401 
20.2954 92.1271 -254.771 81.3378 -41.7563 93.7944 172.368 41.2765 95.0578 -72.9401 44.9644 16.4375 65.8313 5.39155 4.01577 40.7799 10.965 19.63 -161.037 -5.03828 130.116 -6.51648 56.559 7.70101 48.0814 5.89032 4.52407 48.9141 1.72646 6.37879 -4.71742 7.75572 -91.7828 11.2754 -10.2173 -2.53772 -0.3566 -10.319 -2.08105 -23.137 -8.97974 -5.51166 -3.1243 -8.97975 -5.51166 94.3896 -41.1383 -95.5515 35.8828 -19.8145 8.79134 -3.80011 4.8655 -107.009 81.6601 12.2883 8.92968 -89.419 -43.6611 78.2084 -43.4256 17.3438 38.4023 14.0268 -0.932737 -82.9692 38.317 3.0175 3.99891 12.1381 0.507053 1.03535 3.36665 0.30298 0.445836 
19.7372 94.0492 -250.199 91.7493 -48.6053 98.8254 -177.64 34.868 87.8822 -49.9873 54.7531 3.34134 54.0483 -1.52408 2.38175 43.8099 14.1777 18.858 -162.486 -19.5643 126.091 -7.41963 41.6147 10.5586 40.2187 4.86865 4.72428 40.3183 0.647681 -1.02557 -3.96293 8.32826 -91.0918 10.1811 -8.39452 -1.46124 -1.463 -8.45063 -1.08777 -24.1778 -7.5654 -3.92975 -4.16518 -7.5654 -3.92975 94.3312 -39.5282 -95.9595 36.4326 -21.3239 9.26795 -11.3152 -0.853065 -99.773 88.4025 5.98595 1.68146 -89.5693 -43.0882 77.8301 -45.4034 16.2153 41.853 13.8035 -1.57393 -84.3009 37.056 2.89392 3.98977 12.6171 0.191114 2.25021 2.66003 -0.366181 -0.822472 
19.5873 95.4344 -244.426 99.9313 -57.7925 103.145 -173.059 28.1861 85.2786 -30.3578 46.1674 -5.96257 52.1718 -4.27889 -2.28983 40.3955 9.88808 11.5575 -174.703 -32.0077 112.707 -10.4507 22.0341 10.5269 30.0169 4.67544 5.72056 29.0228 0.542679 -9.52834 -2.97385 8.46527 -90.4264 9.94254 -6.12053 -0.346401 -1.71396 -6.12983 -0.075664 -24.3539 -5.73254 -2.17586 -4.34124 -5.73254 -2.17586 94.4961 -39.6078 -95.653 36.4546 -23.4535 11.1212 -16.9937 0.205826 -97.9735 84.2168 1.90331 -1.52378 -88.2271 -40.8803 79.5228 -48.288 15.6633 44.3743 14.1704 -2.02506 -84.9823 37.8715 1.95868 1.2349 12.7318 0.128962 1.00573 1.06178 -0.120416 -0.441225 
19.65 95.6749 -238.166 108.726 -70.3046 109.654 -172.478 22.4962 84.7248 -20.5343 28.6845 -5.56181 44.0668 -11.3298 -9.67606 42.2965 11.7815 12.6526 169.616 -23.6065 93.5141 -37.6831 6.31258 6.76231 34.3318 4.5961 5.19989 25.2763 0.728618 -9.56732 -1.71035 8.34373 -89.9444 10.1954 -3.38254 0.397177 -1.47132 -3.36178 0.545827 -24.0407 -3.34537 -0.638915 -4.02804 -3.34537 -0.638921 94.9161 -39.845 -94.8695 36.0288 -24.3303 11.6836 -18.766 3.40145 -96.1479 82.0443 0.591057 -2.63949 -87.7906 -40.8368 80.2407 -48.5183 14.5973 45.0085 15.1062 -2.67445 -86.5816 35.4873 1.81978 1.18898 12.2002 0.725614 0.114773 1.13282 0.682729 -0.0386169 
19.87 95.1115 -231.446 130.67 -81.1265 129.626 -171.511 19.1356 83.6718 -19.6984 22.9752 -6.11163 49.3974 -7.80737 0.424699 26.9582 -1.59322 1.16456 168.959 -7.44996 86.0658 -62.3495 2.15124 0.446045 39.1193 3.69844 3.91991 25.2152 0.629467 -8.44931 -0.575504 8.07075 -89.4933 10.7359 -0.912429 1.09152 -0.935255 -0.863511 1.13062 -23.4709 -1.19828 0.766851 -3.45827 -1.19829 0.766831 94.7903 -41.1007 -94.8651 36.1477 -24.1276 14.7048 -14.5295 -1.79539 -94.7371 67.4301 -1.04177 -5.35471 -87.8773 -41.6395 80.2697 -46.5486 13.9984 43.9627 14.767 -2.81998 -87.6535 38.6088 1.74134 0.529464 10.1934 1.3024 -1.32753 2.17022 1.58993 0.777512 
20.0951 93.7714 -224.019 -170.181 -85.2181 -171.868 -169.981 19.1567 83.1125 -30.8252 10.7631 -6.0983 66.0952 6.37789 3.42689 20.8609 -6.28129 -0.149538 173.809 4.98938 83.0428 -76.4028 4.26856 -2.56928 41.9048 2.1691 2.32591 28.2897 0.426248 -7.07422 0.0928143 7.766 -89.3323 11.3372 0.496016 1.27992 -0.334209 0.551857 1.25685 -22.8645 0.0884425 1.3698 -2.85188 0.0884543 1.36981 94.804 -41.7741 -94.7266 36.4129 -21.9477 18.2204 -12.9 -6.27246 -89.0638 43.4015 -1.68836 -6.49379 -88.5664 -44.1713 79.691 -43.0497 14.9395 40.8131 12.6375 -3.14357 -88.0522 35.8837 2.03625 1.68652 6.88869 2.22835 -1.93461 4.83503 2.66105 1.65714 
19.9669 92.6105 -216.282 -137.861 -84.3969 -139.86 -168.688 18.1329 82.8604 -38.3214 10.2252 -6.34009 70.0565 11.3601 8.37483 28.6864 -0.207187 1.28351 177.596 17.8926 85.9529 -84.0268 6.61242 -3.14864 45.368 0.270522 0.5874 32.316 0.467238 -8.14037 0.281822 7.78051 -89.0828 11.3033 0.988192 1.73164 -0.368373 1.06344 1.68649 -22.8953 0.422177 1.9485 -2.88262 0.422178 1.9485 94.8536 -45.5264 -94.0192 34.3116 -19.2436 18.9382 -17.5882 -10.0121 -80.9333 -32.6086 -0.591748 -1.27989 -89.4776 -46.3009 78.7218 -36.4408 16.8793 32.9199 11.571 -2.58804 -86.5596 41.0363 2.76863 2.87295 8.70754 2.57412 -3.98011 3.76081 3.44514 2.19363 
19.8816 92.2982 -207.933 -139.008 -84.2089 -141.177 -168.846 13.4991 83.5959 -41.2852 10.1355 -6.25868 72.9785 13.7237 8.0375 33.5492 3.69378 1.77608 179.412 25.927 86.304 -83.4674 10.7304 -3.10226 51.0135 -1.82959 -1.0813 33.2372 0.375082 -6.12741 0.155103 7.89751 -88.8857 11.0659 0.82568 2.13795 -0.606427 0.918945 2.09955 -23.1279 0.145138 2.28717 -3.11522 0.145132 2.28717 94.3481 -48.2242 -94.4049 33.5617 -17.9658 20.5503 -13.0337 -12.1581 -74.2801 -29.4011 -0.976816 -0.643586 -90.7689 -45.9956 76.6306 -31.1187 16.8247 24.5594 12.4559 -1.25841 -85.5892 42.5367 4.00977 5.51531 8.9794 3.24603 -5.83466 4.31656 4.52162 2.92585 
